<svg width="23" height="23" viewBox="0 0 23 23" fill="none" xmlns="http://www.w3.org/2000/svg">
<path d="M11.5 6.38889C10.4891 6.38889 9.50094 6.68865 8.66042 7.25027C7.8199 7.81188 7.1648 8.61013 6.77795 9.54406C6.3911 10.478 6.28988 11.5057 6.4871 12.4971C6.68431 13.4886 7.1711 14.3993 7.8859 15.1141C8.6007 15.8289 9.51141 16.3157 10.5029 16.5129C11.4943 16.7101 12.522 16.6089 13.4559 16.2221C14.3899 15.8352 15.1881 15.1801 15.7497 14.3396C16.3113 13.4991 16.6111 12.5109 16.6111 11.5C16.6097 10.1449 16.0708 8.84567 15.1125 7.88746C14.1543 6.92924 12.8551 6.3903 11.5 6.38889ZM11.5 14.0556C10.9946 14.0556 10.5005 13.9057 10.0802 13.6249C9.65995 13.3441 9.3324 12.9449 9.13897 12.478C8.94555 12.011 8.89494 11.4972 8.99355 11.0014C9.09216 10.5057 9.33555 10.0504 9.69295 9.69295C10.0504 9.33555 10.5057 9.09216 11.0014 8.99355C11.4972 8.89494 12.011 8.94555 12.478 9.13897C12.9449 9.3324 13.3441 9.65995 13.6249 10.0802C13.9057 10.5005 14.0556 10.9946 14.0556 11.5C14.0556 12.1778 13.7863 12.8278 13.3071 13.3071C12.8278 13.7863 12.1778 14.0556 11.5 14.0556ZM16.6111 0H6.38889C4.69506 0.00197269 3.07116 0.675719 1.87344 1.87344C0.675719 3.07116 0.00197269 4.69506 0 6.38889V16.6111C0.00197269 18.3049 0.675719 19.9288 1.87344 21.1266C3.07116 22.3243 4.69506 22.998 6.38889 23H16.6111C18.3049 22.998 19.9288 22.3243 21.1266 21.1266C22.3243 19.9288 22.998 18.3049 23 16.6111V6.38889C22.998 4.69506 22.3243 3.07116 21.1266 1.87344C19.9288 0.675719 18.3049 0.00197269 16.6111 0ZM20.4444 16.6111C20.4444 17.6278 20.0406 18.6028 19.3217 19.3217C18.6028 20.0406 17.6278 20.4444 16.6111 20.4444H6.38889C5.37223 20.4444 4.3972 20.0406 3.67831 19.3217C2.95942 18.6028 2.55556 17.6278 2.55556 16.6111V6.38889C2.55556 5.37223 2.95942 4.3972 3.67831 3.67831C4.3972 2.95942 5.37223 2.55556 6.38889 2.55556H16.6111C17.6278 2.55556 18.6028 2.95942 19.3217 3.67831C20.0406 4.3972 20.4444 5.37223 20.4444 6.38889V16.6111ZM18.7407 5.96296C18.7407 6.29992 18.6408 6.62932 18.4536 6.90949C18.2664 7.18966 18.0003 7.40803 17.689 7.53698C17.3777 7.66593 17.0351 7.69967 16.7047 7.63393C16.3742 7.56819 16.0706 7.40593 15.8323 7.16766C15.5941 6.9294 15.4318 6.62583 15.3661 6.29534C15.3003 5.96485 15.3341 5.6223 15.463 5.31098C15.592 4.99967 15.8103 4.73359 16.0905 4.54639C16.3707 4.35918 16.7001 4.25926 17.037 4.25926C17.4889 4.25926 17.9222 4.43876 18.2417 4.75826C18.5612 5.07777 18.7407 5.51111 18.7407 5.96296Z" fill="white"/>
</svg>
