<svg width="23" height="23" viewBox="0 0 23 23" fill="none" xmlns="http://www.w3.org/2000/svg">
<path d="M17.8155 14.7994C17.6401 15.6678 17.1702 16.449 16.4854 17.0107C15.8007 17.5724 14.943 17.8802 14.0575 17.882C11.6866 17.8795 9.41352 16.936 7.73703 15.2586C6.06054 13.5811 5.11757 11.3067 5.11504 8.93446C5.11687 8.04847 5.4245 7.19031 5.9859 6.50514C6.5473 5.81997 7.328 5.34987 8.19593 5.17434C8.47031 5.12001 8.75492 5.15729 9.00608 5.28044C9.25725 5.40359 9.46107 5.60581 9.58628 5.85606L10.8084 8.30599C10.9087 8.50725 10.9541 8.73141 10.94 8.95584C10.926 9.18026 10.8531 9.39702 10.7286 9.58422L9.82155 10.9455C10.2885 11.9199 11.0738 12.7056 12.0476 13.1728L13.4081 12.2653C13.5952 12.1407 13.8119 12.0677 14.0361 12.0537C14.2604 12.0397 14.4845 12.0851 14.6856 12.1854L17.1342 13.4083C17.3843 13.5335 17.5864 13.7375 17.7094 13.9888C17.8325 14.2401 17.8698 14.5249 17.8155 14.7994ZM23 11.4909C23.0004 13.4615 22.4949 15.3991 21.532 17.1181C20.5691 18.837 19.181 20.2797 17.5008 21.3077C15.8207 22.3358 13.9047 22.9148 11.9367 22.9892C9.96866 23.0636 8.01451 22.6309 6.26159 21.7327L2.80915 22.8884C2.43331 23.0152 2.02957 23.0344 1.64342 22.9438C1.25727 22.8533 0.904063 22.6566 0.623617 22.376C0.343172 22.0954 0.146632 21.742 0.0561497 21.3556C-0.0343328 20.9693 -0.015161 20.5653 0.111504 20.1892L1.26232 16.7348C0.472067 15.186 0.0430297 13.4781 0.00746155 11.7395C-0.0281066 10.0009 0.33072 8.2768 1.05696 6.69692C1.78321 5.11703 2.85796 3.72245 4.20043 2.61802C5.5429 1.51358 7.11814 0.72804 8.80772 0.320453C10.4973 -0.0871348 12.2572 -0.106161 13.9552 0.264805C15.6532 0.635771 17.245 1.38708 18.611 2.46223C19.977 3.53738 21.0817 4.90841 21.8419 6.47222C22.602 8.03603 22.998 9.75193 23 11.4909ZM20.445 11.4909C20.4445 10.1185 20.1284 8.76453 19.5213 7.53384C18.9141 6.30316 18.0322 5.22872 16.9436 4.39365C15.8551 3.55857 14.5892 2.98523 13.2438 2.718C11.8983 2.45076 10.5095 2.49678 9.18473 2.85251C7.85994 3.20823 6.63469 3.86412 5.60376 4.76944C4.57283 5.67475 3.76386 6.80522 3.23944 8.0734C2.71501 9.34158 2.48918 10.7135 2.57941 12.083C2.66965 13.4524 3.07353 14.7828 3.75982 15.9711C3.85053 16.1278 3.90693 16.302 3.92528 16.4821C3.94363 16.6623 3.92352 16.8443 3.86628 17.016L2.80915 20.1892L5.98054 19.1315C6.111 19.088 6.24758 19.0657 6.38508 19.0655C6.60945 19.0659 6.82975 19.1254 7.02383 19.238C8.38332 20.0251 9.92603 20.4401 11.4967 20.4411C13.0674 20.4421 14.6106 20.0292 15.9712 19.2438C17.3317 18.4585 18.4615 17.3285 19.2468 15.9675C20.0322 14.6065 20.4455 13.0625 20.445 11.4909Z" fill="white"/>
</svg>
